<svg xmlns="http://www.w3.org/2000/svg" class="icon icon-login" viewBox="0 0 46 50"><path d="M46 46.8c-2.2-10-10.4-14.1-13.9-15.3L28.3 30l3.4-2.3c4.1-2.8 6.6-7.5 6.6-12.5C38.2 6.8 31.4 0 23 0 14.7 0 7.8 6.8 7.8 15.2c0 5 2.5 9.6 6.6 12.5l3.4 2.3L14 31.4C7.2 33.9 2.3 39.3 0.1 46.6c-0.4 1.4 0.4 2.9 1.8 3.3l0 0c1.4 0.4 2.9-0.4 3.3-1.8 2.1-7.1 7.3-11.6 14.6-12.7 2.5-0.4 3.9-0.3 6.3 0 4.5 0.6 12.6 3.8 14.5 12.5 0.3 1.4 1.7 2.4 3.2 2C45.4 49.6 46.3 48.2 46 46.8zM23 25c-5.4 0-9.8-4.4-9.8-9.8 0-5.4 4.4-9.8 9.8-9.8 5.4 0 9.8 4.4 9.8 9.8C32.8 20.6 28.4 25 23 25z"/></svg>
